# xmcd
#
# Track frame offsets: 
#        150
#        19500
#        39072
#        52142
#        72260
#        86597
#        108767
#        120382
#        142030
#
# Disc length: 2283 seconds
#
# Revision: 1
# Processed by: cddbd v1.5.2PL0 Copyright (c) Steve Scherf et al.
# Submitted via: ExactAudioCopy v1.0b3
#
DISCID=6d08e909
DTITLE=Tommy Bankhead - Please Mr. Foreman
DYEAR=2001
DGENRE=Blues
TTITLE0=Please Mr. Foreman
TTITLE1=There Is Something On Your Mind
TTITLE2=Nothing Like A Good Woman
TTITLE3=Ooh! Baby!
TTITLE4=Making Love Is Good For You
TTITLE5=Cummins Prison Farm
TTITLE6=Down With The Blues
TTITLE7=Don't Take My Picture Off Your Wall
TTITLE8=How Many More Years
EXTD=
EXTT0=
EXTT1=
EXTT2=
EXTT3=
EXTT4=
EXTT5=
EXTT6=
EXTT7=
EXTT8=
PLAYORDER=
